<mxfile host="app.diagrams.net" agent="Mozilla/5.0 (Macintosh; Intel Mac OS X 10_15_7) AppleWebKit/605.1.15 (KHTML, like Gecko) Version/17.5 Safari/605.1.15" version="26.1.3">
  <diagram name="第 1 页" id="zbadS2uqk7GuedTdci7r">
    <mxGraphModel dx="954" dy="622" grid="1" gridSize="10" guides="1" tooltips="1" connect="1" arrows="1" fold="1" page="1" pageScale="1" pageWidth="827" pageHeight="1169" math="0" shadow="0">
      <root>
        <mxCell id="0" />
        <mxCell id="1" parent="0" />
        <mxCell id="LUJ0HTTkV73tYnxpB8u3-5" value="" style="rounded=0;whiteSpace=wrap;html=1;" parent="1" vertex="1">
          <mxGeometry x="160" y="132" width="400" height="108" as="geometry" />
        </mxCell>
        <mxCell id="LUJ0HTTkV73tYnxpB8u3-3" value="&lt;font style=&quot;font-size: 16px;&quot;&gt;DeviceController&lt;/font&gt;" style="rounded=1;whiteSpace=wrap;html=1;" parent="1" vertex="1">
          <mxGeometry x="280" y="143" width="160" height="40" as="geometry" />
        </mxCell>
        <mxCell id="LUJ0HTTkV73tYnxpB8u3-4" value="&lt;font size=&quot;3&quot;&gt;CloudHub&lt;/font&gt;" style="rounded=1;whiteSpace=wrap;html=1;" parent="1" vertex="1">
          <mxGeometry x="280" y="192" width="160" height="40" as="geometry" />
        </mxCell>
        <mxCell id="LUJ0HTTkV73tYnxpB8u3-6" value="&lt;font style=&quot;font-size: 16px;&quot;&gt;CloudCore&lt;/font&gt;" style="text;html=1;align=center;verticalAlign=middle;resizable=0;points=[];autosize=1;strokeColor=none;fillColor=none;" parent="1" vertex="1">
          <mxGeometry x="170" y="171" width="100" height="30" as="geometry" />
        </mxCell>
        <mxCell id="LUJ0HTTkV73tYnxpB8u3-7" value="" style="rounded=0;whiteSpace=wrap;html=1;" parent="1" vertex="1">
          <mxGeometry x="160" y="270" width="400" height="120" as="geometry" />
        </mxCell>
        <mxCell id="LUJ0HTTkV73tYnxpB8u3-8" value="&lt;font size=&quot;3&quot;&gt;EdgeHub&lt;/font&gt;" style="rounded=1;whiteSpace=wrap;html=1;" parent="1" vertex="1">
          <mxGeometry x="280" y="281" width="160" height="40" as="geometry" />
        </mxCell>
        <mxCell id="LUJ0HTTkV73tYnxpB8u3-9" value="&lt;font size=&quot;3&quot;&gt;DeviceTwin&lt;/font&gt;" style="rounded=1;whiteSpace=wrap;html=1;" parent="1" vertex="1">
          <mxGeometry x="280" y="330" width="160" height="40" as="geometry" />
        </mxCell>
        <mxCell id="LUJ0HTTkV73tYnxpB8u3-10" value="&lt;font style=&quot;font-size: 16px;&quot;&gt;EdgeCore&lt;/font&gt;" style="text;html=1;align=center;verticalAlign=middle;resizable=0;points=[];autosize=1;strokeColor=none;fillColor=none;" parent="1" vertex="1">
          <mxGeometry x="170" y="320" width="100" height="30" as="geometry" />
        </mxCell>
        <mxCell id="LUJ0HTTkV73tYnxpB8u3-11" value="&lt;font style=&quot;font-size: 16px;&quot;&gt;DMI&lt;/font&gt;" style="rounded=1;whiteSpace=wrap;html=1;" parent="1" vertex="1">
          <mxGeometry x="332" y="360" width="60" height="25" as="geometry" />
        </mxCell>
        <mxCell id="LUJ0HTTkV73tYnxpB8u3-12" value="" style="rounded=0;whiteSpace=wrap;html=1;" parent="1" vertex="1">
          <mxGeometry x="160" y="421" width="400" height="160" as="geometry" />
        </mxCell>
        <mxCell id="LUJ0HTTkV73tYnxpB8u3-13" value="&lt;font size=&quot;3&quot;&gt;DataBaseClient&lt;/font&gt;" style="rounded=1;whiteSpace=wrap;html=1;" parent="1" vertex="1">
          <mxGeometry x="190" y="441" width="160" height="40" as="geometry" />
        </mxCell>
        <mxCell id="LUJ0HTTkV73tYnxpB8u3-40" style="edgeStyle=orthogonalEdgeStyle;rounded=0;orthogonalLoop=1;jettySize=auto;html=1;exitX=1;exitY=0.5;exitDx=0;exitDy=0;entryX=0.5;entryY=0;entryDx=0;entryDy=0;strokeWidth=2;" parent="1" source="LUJ0HTTkV73tYnxpB8u3-14" target="LUJ0HTTkV73tYnxpB8u3-36" edge="1">
          <mxGeometry relative="1" as="geometry" />
        </mxCell>
        <mxCell id="LUJ0HTTkV73tYnxpB8u3-45" style="edgeStyle=orthogonalEdgeStyle;rounded=0;orthogonalLoop=1;jettySize=auto;html=1;exitX=1;exitY=0.5;exitDx=0;exitDy=0;entryX=0.5;entryY=0;entryDx=0;entryDy=0;strokeWidth=2;" parent="1" source="LUJ0HTTkV73tYnxpB8u3-14" target="LUJ0HTTkV73tYnxpB8u3-42" edge="1">
          <mxGeometry relative="1" as="geometry" />
        </mxCell>
        <mxCell id="LUJ0HTTkV73tYnxpB8u3-14" value="&lt;font size=&quot;3&quot;&gt;DataPush&lt;/font&gt;" style="rounded=1;whiteSpace=wrap;html=1;" parent="1" vertex="1">
          <mxGeometry x="370" y="441" width="160" height="40" as="geometry" />
        </mxCell>
        <mxCell id="LUJ0HTTkV73tYnxpB8u3-16" value="" style="edgeStyle=orthogonalEdgeStyle;rounded=0;orthogonalLoop=1;jettySize=auto;html=1;strokeWidth=2;" parent="1" source="LUJ0HTTkV73tYnxpB8u3-15" target="LUJ0HTTkV73tYnxpB8u3-14" edge="1">
          <mxGeometry relative="1" as="geometry" />
        </mxCell>
        <mxCell id="LUJ0HTTkV73tYnxpB8u3-17" style="rounded=0;orthogonalLoop=1;jettySize=auto;html=1;exitX=0;exitY=0;exitDx=0;exitDy=0;entryX=1;entryY=1;entryDx=0;entryDy=0;strokeWidth=2;" parent="1" source="LUJ0HTTkV73tYnxpB8u3-15" target="LUJ0HTTkV73tYnxpB8u3-13" edge="1">
          <mxGeometry relative="1" as="geometry" />
        </mxCell>
        <mxCell id="LUJ0HTTkV73tYnxpB8u3-35" style="edgeStyle=orthogonalEdgeStyle;rounded=0;orthogonalLoop=1;jettySize=auto;html=1;strokeWidth=2;exitX=0.5;exitY=1;exitDx=0;exitDy=0;" parent="1" source="LUJ0HTTkV73tYnxpB8u3-15" edge="1">
          <mxGeometry relative="1" as="geometry">
            <mxPoint x="450" y="551" as="sourcePoint" />
            <mxPoint x="358" y="631" as="targetPoint" />
            <Array as="points">
              <mxPoint x="450" y="591" />
              <mxPoint x="358" y="591" />
            </Array>
          </mxGeometry>
        </mxCell>
        <mxCell id="LUJ0HTTkV73tYnxpB8u3-15" value="&lt;font size=&quot;3&quot;&gt;DataPanel&lt;/font&gt;" style="rounded=1;whiteSpace=wrap;html=1;" parent="1" vertex="1">
          <mxGeometry x="370" y="521" width="160" height="40" as="geometry" />
        </mxCell>
        <mxCell id="LUJ0HTTkV73tYnxpB8u3-18" value="&lt;font size=&quot;3&quot;&gt;DevPanel&lt;/font&gt;" style="rounded=1;whiteSpace=wrap;html=1;" parent="1" vertex="1">
          <mxGeometry x="190" y="521" width="160" height="40" as="geometry" />
        </mxCell>
        <mxCell id="LUJ0HTTkV73tYnxpB8u3-19" value="&lt;font size=&quot;3&quot;&gt;Mapper&lt;/font&gt;" style="text;html=1;align=center;verticalAlign=middle;resizable=0;points=[];autosize=1;strokeColor=none;fillColor=none;" parent="1" vertex="1">
          <mxGeometry x="170" y="489" width="80" height="30" as="geometry" />
        </mxCell>
        <mxCell id="LUJ0HTTkV73tYnxpB8u3-20" value="&lt;font style=&quot;font-size: 16px;&quot;&gt;本地数据库&lt;/font&gt;" style="shape=cylinder3;whiteSpace=wrap;html=1;boundedLbl=1;backgroundOutline=1;size=10.333333333333428;" parent="1" vertex="1">
          <mxGeometry x="10" y="426" width="90" height="70" as="geometry" />
        </mxCell>
        <mxCell id="LUJ0HTTkV73tYnxpB8u3-21" style="edgeStyle=orthogonalEdgeStyle;rounded=0;orthogonalLoop=1;jettySize=auto;html=1;entryX=1;entryY=0.5;entryDx=0;entryDy=0;entryPerimeter=0;strokeWidth=2;" parent="1" source="LUJ0HTTkV73tYnxpB8u3-13" target="LUJ0HTTkV73tYnxpB8u3-20" edge="1">
          <mxGeometry relative="1" as="geometry" />
        </mxCell>
        <mxCell id="LUJ0HTTkV73tYnxpB8u3-24" style="rounded=0;orthogonalLoop=1;jettySize=auto;html=1;exitX=0.5;exitY=1;exitDx=0;exitDy=0;entryX=0.506;entryY=-0.014;entryDx=0;entryDy=0;entryPerimeter=0;strokeWidth=2;" parent="1" source="LUJ0HTTkV73tYnxpB8u3-11" target="LUJ0HTTkV73tYnxpB8u3-12" edge="1">
          <mxGeometry relative="1" as="geometry" />
        </mxCell>
        <mxCell id="LUJ0HTTkV73tYnxpB8u3-25" style="edgeStyle=orthogonalEdgeStyle;rounded=0;orthogonalLoop=1;jettySize=auto;html=1;exitX=0.5;exitY=1;exitDx=0;exitDy=0;entryX=0.5;entryY=0;entryDx=0;entryDy=0;strokeWidth=2;startArrow=classic;startFill=1;" parent="1" source="LUJ0HTTkV73tYnxpB8u3-4" target="LUJ0HTTkV73tYnxpB8u3-8" edge="1">
          <mxGeometry relative="1" as="geometry" />
        </mxCell>
        <mxCell id="LUJ0HTTkV73tYnxpB8u3-32" value="" style="group" parent="1" vertex="1" connectable="0">
          <mxGeometry x="295" y="610" width="113" height="61" as="geometry" />
        </mxCell>
        <mxCell id="LUJ0HTTkV73tYnxpB8u3-26" value="&lt;font style=&quot;font-size: 16px;&quot;&gt;Device&lt;/font&gt;" style="rounded=0;whiteSpace=wrap;html=1;" parent="LUJ0HTTkV73tYnxpB8u3-32" vertex="1">
          <mxGeometry x="13" width="100" height="50" as="geometry" />
        </mxCell>
        <mxCell id="LUJ0HTTkV73tYnxpB8u3-30" value="&lt;font style=&quot;font-size: 16px;&quot;&gt;Device&lt;/font&gt;" style="rounded=0;whiteSpace=wrap;html=1;" parent="LUJ0HTTkV73tYnxpB8u3-32" vertex="1">
          <mxGeometry x="7" y="5" width="100" height="50" as="geometry" />
        </mxCell>
        <mxCell id="LUJ0HTTkV73tYnxpB8u3-31" value="&lt;font style=&quot;font-size: 16px;&quot;&gt;Device&lt;/font&gt;" style="rounded=0;whiteSpace=wrap;html=1;" parent="LUJ0HTTkV73tYnxpB8u3-32" vertex="1">
          <mxGeometry y="11" width="100" height="50" as="geometry" />
        </mxCell>
        <mxCell id="LUJ0HTTkV73tYnxpB8u3-33" value="" style="endArrow=classic;html=1;rounded=0;strokeWidth=2;entryX=0.5;entryY=0;entryDx=0;entryDy=0;" parent="1" target="LUJ0HTTkV73tYnxpB8u3-26" edge="1">
          <mxGeometry width="50" height="50" relative="1" as="geometry">
            <mxPoint x="270" y="561" as="sourcePoint" />
            <mxPoint x="358" y="631" as="targetPoint" />
            <Array as="points">
              <mxPoint x="270" y="591" />
              <mxPoint x="320" y="591" />
              <mxPoint x="358" y="591" />
            </Array>
          </mxGeometry>
        </mxCell>
        <mxCell id="LUJ0HTTkV73tYnxpB8u3-39" value="" style="group" parent="1" vertex="1" connectable="0">
          <mxGeometry x="613" y="481" width="80" height="80" as="geometry" />
        </mxCell>
        <mxCell id="LUJ0HTTkV73tYnxpB8u3-36" value="" style="ellipse;whiteSpace=wrap;html=1;aspect=fixed;" parent="LUJ0HTTkV73tYnxpB8u3-39" vertex="1">
          <mxGeometry width="80" height="80" as="geometry" />
        </mxCell>
        <mxCell id="LUJ0HTTkV73tYnxpB8u3-37" value="http://" style="rounded=0;whiteSpace=wrap;html=1;" parent="LUJ0HTTkV73tYnxpB8u3-39" vertex="1">
          <mxGeometry x="10" y="15" width="60" height="26" as="geometry" />
        </mxCell>
        <mxCell id="LUJ0HTTkV73tYnxpB8u3-38" value="Edge App" style="text;html=1;align=center;verticalAlign=middle;resizable=0;points=[];autosize=1;strokeColor=none;fillColor=none;" parent="LUJ0HTTkV73tYnxpB8u3-39" vertex="1">
          <mxGeometry y="41" width="80" height="30" as="geometry" />
        </mxCell>
        <mxCell id="LUJ0HTTkV73tYnxpB8u3-41" value="" style="group" parent="1" vertex="1" connectable="0">
          <mxGeometry x="730" y="481" width="80" height="80" as="geometry" />
        </mxCell>
        <mxCell id="LUJ0HTTkV73tYnxpB8u3-42" value="" style="ellipse;whiteSpace=wrap;html=1;aspect=fixed;" parent="LUJ0HTTkV73tYnxpB8u3-41" vertex="1">
          <mxGeometry width="80" height="80" as="geometry" />
        </mxCell>
        <mxCell id="LUJ0HTTkV73tYnxpB8u3-43" value="mqtt://" style="rounded=0;whiteSpace=wrap;html=1;" parent="LUJ0HTTkV73tYnxpB8u3-41" vertex="1">
          <mxGeometry x="10" y="15" width="60" height="26" as="geometry" />
        </mxCell>
        <mxCell id="LUJ0HTTkV73tYnxpB8u3-44" value="Edge App" style="text;html=1;align=center;verticalAlign=middle;resizable=0;points=[];autosize=1;strokeColor=none;fillColor=none;" parent="LUJ0HTTkV73tYnxpB8u3-41" vertex="1">
          <mxGeometry y="41" width="80" height="30" as="geometry" />
        </mxCell>
        <mxCell id="LUJ0HTTkV73tYnxpB8u3-46" style="rounded=0;orthogonalLoop=1;jettySize=auto;html=1;exitX=1;exitY=0.5;exitDx=0;exitDy=0;strokeWidth=2;startArrow=classic;startFill=1;entryX=0;entryY=0.5;entryDx=0;entryDy=0;" parent="1" target="LUJ0HTTkV73tYnxpB8u3-49" edge="1">
          <mxGeometry relative="1" as="geometry">
            <mxPoint x="560" y="183" as="sourcePoint" />
            <mxPoint x="640" y="183" as="targetPoint" />
          </mxGeometry>
        </mxCell>
        <mxCell id="LUJ0HTTkV73tYnxpB8u3-49" value="&lt;font style=&quot;font-size: 16px;&quot;&gt;K8s API-Server&lt;/font&gt;" style="rounded=1;whiteSpace=wrap;html=1;" parent="1" vertex="1">
          <mxGeometry x="613" y="163" width="150" height="40" as="geometry" />
        </mxCell>
        <mxCell id="LUJ0HTTkV73tYnxpB8u3-51" style="rounded=0;orthogonalLoop=1;jettySize=auto;html=1;exitX=1;exitY=0.5;exitDx=0;exitDy=0;strokeWidth=2;startArrow=classic;startFill=1;entryX=0;entryY=0.5;entryDx=0;entryDy=0;" parent="1" edge="1">
          <mxGeometry relative="1" as="geometry">
            <mxPoint x="763" y="182.66" as="sourcePoint" />
            <mxPoint x="816" y="182.66" as="targetPoint" />
          </mxGeometry>
        </mxCell>
        <mxCell id="LUJ0HTTkV73tYnxpB8u3-52" value="" style="group" parent="1" vertex="1" connectable="0">
          <mxGeometry x="817" y="143" width="80" height="80" as="geometry" />
        </mxCell>
        <mxCell id="LUJ0HTTkV73tYnxpB8u3-53" value="" style="ellipse;whiteSpace=wrap;html=1;aspect=fixed;" parent="LUJ0HTTkV73tYnxpB8u3-52" vertex="1">
          <mxGeometry width="80" height="80" as="geometry" />
        </mxCell>
        <mxCell id="LUJ0HTTkV73tYnxpB8u3-54" value="http://" style="rounded=0;whiteSpace=wrap;html=1;" parent="LUJ0HTTkV73tYnxpB8u3-52" vertex="1">
          <mxGeometry x="10" y="15" width="60" height="26" as="geometry" />
        </mxCell>
        <mxCell id="LUJ0HTTkV73tYnxpB8u3-55" value="Cloud App" style="text;html=1;align=center;verticalAlign=middle;resizable=0;points=[];autosize=1;strokeColor=none;fillColor=none;" parent="LUJ0HTTkV73tYnxpB8u3-52" vertex="1">
          <mxGeometry y="41" width="80" height="30" as="geometry" />
        </mxCell>
      </root>
    </mxGraphModel>
  </diagram>
</mxfile>
